<svg height="512" viewBox="0 0 512 512" width="512" xmlns="http://www.w3.org/2000/svg" xmlns:xlink="http://www.w3.org/1999/xlink"><linearGradient id="linear-gradient" gradientUnits="userSpaceOnUse" x1="74.98" x2="437.02" y1="74.98" y2="437.02"><stop offset="0" stop-color="#7742cc"/><stop offset="1" stop-color="#461d94"/></linearGradient><g id="Layer_2" data-name="Layer 2"><g id="crown"><circle id="background" cx="256" cy="256" fill="url(#linear-gradient)" r="256"/><g fill="#fff"><path d="m395.91 157.87-18.31 152a12 12 0 0 1 -11.74 10.76h-219.72a12 12 0 0 1 -11.74-10.76l-18.31-152a12.37 12.37 0 0 1 5.9-12.19 11.46 11.46 0 0 1 5.84-1.61 11.67 11.67 0 0 1 7.27 2.58l71 57.29 39.31-81.57a12 12 0 0 1 21.18 0l39.31 81.57 71-57.29a11.65 11.65 0 0 1 7.27-2.58 11.52 11.52 0 0 1 5.85 1.61 12.38 12.38 0 0 1 5.89 12.19z"/><path d="m377.34 339.48v47.18a9.34 9.34 0 0 1 -9.34 9.34h-224a9.34 9.34 0 0 1 -9.34-9.34v-47.18a8.82 8.82 0 0 1 8.82-8.82h225a8.82 8.82 0 0 1 8.86 8.82z"/></g></g></g></svg>