<?xml version="1.0" encoding="iso-8859-1"?>
<!-- Generator: Adobe Illustrator 19.0.0, SVG Export Plug-In . SVG Version: 6.00 Build 0)  -->
<svg version="1.1" id="Capa_1" xmlns="http://www.w3.org/2000/svg" xmlns:xlink="http://www.w3.org/1999/xlink" x="0px" y="0px"
	 viewBox="0 0 512 512" style="enable-background:new 0 0 512 512;" xml:space="preserve">
<g>
	<path style="fill:#C6E2F7;" d="M52.068,329.763c-4.79,0-8.678-3.879-8.678-8.678v-34.712c0-4.799,3.888-8.678,8.678-8.678
		s8.678,3.879,8.678,8.678v34.712C60.746,325.884,56.858,329.763,52.068,329.763z"/>
	<path style="fill:#C6E2F7;" d="M95.458,338.441H60.746c-4.79,0-8.678-3.879-8.678-8.678c0-4.799,3.888-8.678,8.678-8.678h34.712
		c4.79,0,8.678,3.879,8.678,8.678C104.136,334.562,100.248,338.441,95.458,338.441z"/>
	<path style="fill:#C6E2F7;" d="M52.068,381.831c-4.79,0-8.678-3.879-8.678-8.678v-26.034c0-4.799,3.888-8.678,8.678-8.678
		s8.678,3.879,8.678,8.678v26.034C60.746,377.951,56.858,381.831,52.068,381.831z"/>
	<path style="fill:#C6E2F7;" d="M34.712,338.441H8.678c-4.79,0-8.678-3.879-8.678-8.678c0-4.799,3.888-8.678,8.678-8.678h26.034
		c4.79,0,8.678,3.879,8.678,8.678C43.39,334.562,39.502,338.441,34.712,338.441z"/>
</g>
<g>
	<polygon style="fill:#DD352E;" points="442.576,43.39 260.339,43.39 78.102,43.39 26.034,147.525 260.339,468.61 494.644,147.525 	
		"/>
	<polygon style="fill:#DD352E;" points="121.492,147.525 8.678,147.525 260.339,468.61 	"/>
</g>
<g>
	<polygon style="fill:#991C1C;" points="260.339,147.525 260.339,468.61 121.492,147.525 	"/>
	<polygon style="fill:#991C1C;" points="260.339,468.61 512,147.525 399.186,147.525 	"/>
</g>
<g>
	<polygon style="fill:#B02721;" points="399.186,147.525 260.339,468.61 260.339,147.525 	"/>
	<polygon style="fill:#B02721;" points="512,147.525 8.678,147.525 60.746,43.39 459.932,43.39 	"/>
	<polygon style="fill:#B02721;" points="121.492,147.525 8.678,147.525 60.746,43.39 	"/>
</g>
<polygon style="fill:#DD352E;" points="260.339,147.525 121.492,147.525 60.746,43.39 260.339,43.39 "/>
<polygon style="fill:#B02721;" points="260.339,147.525 121.492,147.525 164.881,43.39 "/>
<polygon style="fill:#DD352E;" points="399.186,147.525 512,147.525 459.932,43.39 "/>
<polygon style="fill:#B02721;" points="260.339,147.525 399.186,147.525 459.932,43.39 260.339,43.39 "/>
<polygon style="fill:#DD352E;" points="260.339,147.525 399.186,147.525 355.797,43.39 "/>
<rect x="33.657" y="311.344" transform="matrix(-0.7071 0.7071 -0.7071 -0.7071 322.0551 526.1084)" style="fill:#366DB6;" width="36.82" height="36.82"/>
<g>
</g>
<g>
</g>
<g>
</g>
<g>
</g>
<g>
</g>
<g>
</g>
<g>
</g>
<g>
</g>
<g>
</g>
<g>
</g>
<g>
</g>
<g>
</g>
<g>
</g>
<g>
</g>
<g>
</g>
</svg>
